<svg viewBox="0 0 54 54" xmlns="http://www.w3.org/2000/svg" xml:space="preserve" style="fill-rule:evenodd;clip-rule:evenodd;stroke-miterlimit:10"><circle cx="27" cy="27" r="27" style="fill:#fff"/><path d="M36.5 20.91v1.36h-1.35a.713.713 0 0 1-.73.68H18.23a.713.713 0 0 1-.73-.68h-1.36v-1.36l10.18-4.07 10.18 4.07Zm0 13.57v1.36H16.14v-1.36a.713.713 0 0 1 .73-.68h18.9a.713.713 0 0 1 .73.68ZM21.57 23.62v8.14h1.36v-8.14h2.71v8.14H27v-8.14h2.71v8.14h1.36v-8.14h2.71v8.14h.63a.713.713 0 0 1 .73.68v.68H17.5v-.67a.713.713 0 0 1 .73-.68h.63v-8.15h2.71Z" style="fill:#007faa;fill-rule:nonzero"/><circle cx="27" cy="27.12" r="26" style="fill:none;stroke:#046b99;stroke-width:1px"/></svg>