<svg viewBox="0 0 54 54" xmlns="http://www.w3.org/2000/svg" xml:space="preserve" style="fill-rule:evenodd;clip-rule:evenodd;stroke-miterlimit:10"><circle cx="27" cy="27" r="27" style="fill:#fff"/><path d="M34.72 34.84c0 .708-.582 1.29-1.29 1.29H20.57c-.708 0-1.29-.582-1.29-1.29v-7.72c0-.708.582-1.29 1.29-1.29H21v-2.57c0-3.292 2.708-6 6-6s6 2.708 6 6v2.57h.43c.708 0 1.29.582 1.29 1.29v7.72Zm-4.29-9v-2.58A3.446 3.446 0 0 0 27 19.83a3.446 3.446 0 0 0-3.43 3.43v2.57h6.86v.01Z" style="fill:#549500;fill-rule:nonzero"/><circle cx="27" cy="27.12" r="26" style="fill:none;stroke:#458600;stroke-width:1px"/></svg>